HIERARCHY
ROOT hip
{
  OFFSET 0 0 0
  CHANNELS 6 Xposition Yposition Zposition Zrotation Yrotation Xrotation
  JOINT abdomen
  {
    OFFSET 0 20.6881 -0.73152
    CHANNELS 3 Zrotation Xrotation Yrotation
    JOINT chest
    {
      OFFSET 0 11.7043 -0.48768
      CHANNELS 3 Zrotation Xrotation Yrotation
      JOINT neck
      {
        OFFSET 0 22.1894 -2.19456
        CHANNELS 3 Zrotation Xrotation Yrotation
        JOINT head
        {
          OFFSET -0.24384 7.07133 1.2192
          CHANNELS 3 Zrotation Xrotation Yrotation
          JOINT leftEye
          {
            OFFSET 4.14528 8.04674 8.04672
            CHANNELS 3 Zrotation Xrotation Yrotation
            End Site
            {
              OFFSET 1 0 0
            }
          }
          JOINT rightEye
          {
            OFFSET -3.6576 8.04674 8.04672
            CHANNELS 3 Zrotation Xrotation Yrotation
            End Site
            {
              OFFSET 1 0 0
            }
          }
        }
      }
      JOINT rCollar
      {
        OFFSET -2.68224 19.2634 -4.8768
        CHANNELS 3 Zrotation Xrotation Yrotation
        JOINT rShldr
        {
          OFFSET -8.77824 -1.95073 1.46304
          CHANNELS 3 Zrotation Xrotation Yrotation
          JOINT rForeArm
          {
            OFFSET -28.1742 -1.7115 0.48768
            CHANNELS 3 Zrotation Xrotation Yrotation
            JOINT rHand
            {
              OFFSET -22.5879 0.773209 7.07136
              CHANNELS 3 Zrotation Xrotation Yrotation
              JOINT rThumb1
              {
                OFFSET -1.2192 -0.487915 3.41376
                CHANNELS 3 Zrotation Xrotation Yrotation
                JOINT rThumb2
                {
                  OFFSET -3.37035 -0.52449 3.41376
                  CHANNELS 3 Zrotation Xrotation Yrotation
                  End Site
                  {
                    OFFSET -1.78271 -1.18214 1.43049
                  }
                }
              }
              JOINT rIndex1
              {
                OFFSET -7.75947 0.938293 5.60832
                CHANNELS 3 Zrotation Xrotation Yrotation
                JOINT rIndex2
                {
                  OFFSET -2.54057 -0.884171 1.56538
                  CHANNELS 3 Zrotation Xrotation Yrotation
                  End Site
                  {
                    OFFSET -1.62519 -0.234802 1.16502
                  }
                }
              }
              JOINT rMid1
              {
                OFFSET -8.24714 1.18213 3.41376
                CHANNELS 3 Zrotation Xrotation Yrotation
                JOINT rMid2
                {
                  OFFSET -3.10165 -0.590103 1.0647
                  CHANNELS 3 Zrotation Xrotation Yrotation
                  End Site
                  {
                    OFFSET -2.48547 -0.328903 0.83742
                  }
                }
              }
              JOINT rRing1
              {
                OFFSET -8.82822 0.546677 1.51678
                CHANNELS 3 Zrotation Xrotation Yrotation
                JOINT rRing2
                {
                  OFFSET -2.60934 -0.819778 -0.0198488
                  CHANNELS 3 Zrotation Xrotation Yrotation
                  End Site
                  {
                    OFFSET -2.33842 -0.294052 0.168128
                  }
                }
              }
              JOINT rPinky1
              {
                OFFSET -8.27202 -0.0477905 -0.4584
                CHANNELS 3 Zrotation Xrotation Yrotation
                JOINT rPinky2
                {
                  OFFSET -1.82734 -0.647385 -0.700984
                  CHANNELS 3 Zrotation Xrotation Yrotation
                  End Site
                  {
                    OFFSET -1.69225 -0.51767 -0.607171
                  }
                }
              }
            }
          }
        }
      }
      JOINT lCollar
      {
        OFFSET 2.68224 19.2634 -4.8768
        CHANNELS 3 Zrotation Xrotation Yrotation
        JOINT lShldr
        {
          OFFSET 8.77824 -1.95073 1.46304
          CHANNELS 3 Zrotation Xrotation Yrotation
          JOINT lForeArm
          {
            OFFSET 28.1742 -1.7115 0.48768
            CHANNELS 3 Zrotation Xrotation Yrotation
            JOINT lHand
            {
              OFFSET 22.5879 0.773209 7.07136
              CHANNELS 3 Zrotation Xrotation Yrotation
              JOINT lThumb1
              {
                OFFSET 1.2192 -0.487915 3.41376
                CHANNELS 3 Zrotation Xrotation Yrotation
                JOINT lThumb2
                {
                  OFFSET 3.37035 -0.52449 3.41376
                  CHANNELS 3 Zrotation Xrotation Yrotation
                  End Site
                  {
                    OFFSET 1.78271 -1.18214 1.43049
                  }
                }
              }
              JOINT lIndex1
              {
                OFFSET 7.75947 0.938293 5.60832
                CHANNELS 3 Zrotation Xrotation Yrotation
                JOINT lIndex2
                {
                  OFFSET 2.54057 -0.884171 1.56538
                  CHANNELS 3 Zrotation Xrotation Yrotation
                  End Site
                  {
                    OFFSET 1.62519 -0.234802 1.16502
                  }
                }
              }
              JOINT lMid1
              {
                OFFSET 8.24714 1.18213 3.41376
                CHANNELS 3 Zrotation Xrotation Yrotation
                JOINT lMid2
                {
                  OFFSET 3.10165 -0.590103 1.0647
                  CHANNELS 3 Zrotation Xrotation Yrotation
                  End Site
                  {
                    OFFSET 2.48547 -0.328903 0.83742
                  }
                }
              }
              JOINT lRing1
              {
                OFFSET 8.82822 0.546677 1.51678
                CHANNELS 3 Zrotation Xrotation Yrotation
                JOINT lRing2
                {
                  OFFSET 2.60934 -0.819778 -0.0198488
                  CHANNELS 3 Zrotation Xrotation Yrotation
                  End Site
                  {
                    OFFSET 2.33842 -0.294052 0.168128
                  }
                }
              }
              JOINT lPinky1
              {
                OFFSET 8.27202 -0.0477905 -0.4584
                CHANNELS 3 Zrotation Xrotation Yrotation
                JOINT lPinky2
                {
                  OFFSET 1.82734 -0.647385 -0.700984
                  CHANNELS 3 Zrotation Xrotation Yrotation
                  End Site
                  {
                    OFFSET 1.69225 -0.51767 -0.607171
                  }
                }
              }
            }
          }
        }
      }
    }
  }
  JOINT rButtock
  {
    OFFSET -8.77824 4.35084 1.2192
    CHANNELS 3 Zrotation Xrotation Yrotation
    JOINT rThigh
    {
      OFFSET 0 -1.70687 -2.19456
      CHANNELS 3 Zrotation Xrotation Yrotation
      JOINT rShin
      {
        OFFSET 0 -36.8199 0.73152
        CHANNELS 3 Zrotation Xrotation Yrotation
        JOINT rFoot
        {
          OFFSET 0.73152 -45.1104 -5.12064
          CHANNELS 3 Zrotation Xrotation Yrotation
          End Site
          {
            OFFSET -1.1221 -3.69964 12.103
          }
        }
      }
    }
  }
  JOINT lButtock
  {
    OFFSET 8.77824 4.35084 1.2192
    CHANNELS 3 Zrotation Xrotation Yrotation
    JOINT lThigh
    {
      OFFSET 0 -1.70687 -2.19456
      CHANNELS 3 Zrotation Xrotation Yrotation
      JOINT lShin
      {
        OFFSET 0 -36.8199 0.73152
        CHANNELS 3 Zrotation Xrotation Yrotation
        JOINT lFoot
        {
          OFFSET -0.73152 -45.1104 -5.12064
          CHANNELS 3 Zrotation Xrotation Yrotation
          End Site
          {
            OFFSET 1.1221 -3.69964 12.103
          }
        }
      }
    }
  }
}
MOTION
Frames:	5
Frame Time:	0.00833333
0.0725 88.4821 28.7375 -0.319936 -47.669291 6.515452 -2.56182 -6.659571 165.898853 -1.229949 6.519103 -177.947999 5.687984 39.086215 144.380073 -30.676875 33.933717 179.109605 -0.003124 -0.0 0.000772 -0.003124 -0.0 0.000772 -59.831429 -86.721594 -81.631682 -63.281245 50.099904 111.862887 -63.160975 -74.596722 4.519043 -3.67357 11.182282 -0.099256 -2.151417 2.110854 0.369056 -136.941079 -39.75626 117.484323 -152.81235 -19.873156 121.572949 -2.70747 25.312219 -3.208834 -160.672932 -6.66755 143.246433 92.055788 -78.193211 63.06577 -74.840247 72.960753 92.828061 5.874023 3.553296 -4.094313 -23.392935 -36.349382 -22.492484 -147.233449 13.581704 -143.86181 142.973288 39.43147 -147.389775 -64.635541 -21.326858 -98.060284 -177.577178 17.306267 -34.382647 -173.504847 -12.293554 -144.006346 -83.253775 -50.257721 -33.616466 14.904152 -41.221609 29.99714 -60.460627 -70.524102 -15.710834 -91.365439 -64.999673 -34.295457 160.826938 -7.141805 -143.315888 -179.885907 -48.694281 -140.891387 145.117652 0.226027 179.200648 156.880099 22.849841 -178.151398 124.851261 -29.038581 122.621616 41.729533 -49.104623 43.041168 -0.003253 -0.000617 -0.001627 1.209658 -29.978614 0.0 20.553262 44.538519 106.521231 29.547159 69.509685 -107.127663 -0.003218 -0.002373 -0.001609 -3.811332 -31.93223 168.105451 -22.381266 -52.895235 -108.420232 3.22008 36.085885 -98.951997
1.0889 88.20989999999999 28.7926 -1.039968 -59.568728 7.161512 -0.241209 -3.688649 -64.995381 7.451681 -7.192855 54.917673 -13.516719 26.645126 -48.973339 37.982956 -2.976094 11.342685 -0.002845 0.0 -0.001004 -0.001806 -0.0 0.004234 -3.767606 17.921101 4.640576 120.594175 -43.835293 138.851257 -179.891164 -12.479562 72.982517 168.625833 -22.060997 143.00664 77.030867 -49.317696 29.313034 -56.319471 31.873242 19.513232 -160.409248 -33.696791 122.704937 -132.749503 31.894968 108.40859 -0.057653 0.167893 0.031894 -7.304921 26.197404 6.027024 -0.007904 -0.83154 -0.26141 -150.773192 35.181719 165.824565 32.629549 83.588486 5.712016 -169.850828 70.844217 -145.765841 151.972264 14.763961 -157.371026 -97.327754 -24.427547 -130.919268 -179.620927 -2.163653 -32.631345 -172.815276 -14.640205 -143.780221 0.442472 0.434867 -0.070127 124.591634 -17.385103 -111.452371 0.688584 1.108182 -0.393422 65.806493 48.393661 -50.636094 169.089295 -33.247371 -145.375351 1.484073 12.582235 -2.532462 145.100349 -1.521717 178.651399 150.515224 -33.834162 173.360924 -0.09981 0.257858 -0.092809 -2.498771 0.046785 -0.029924 -179.989938 75.749629 -0.006884 -178.394768 43.441595 -180.0 -21.432819 -48.198044 -48.064921 -161.720267 17.10865 146.024554 0.0 0.001486 -1.2e-05 -3.183725 -31.311958 180.0 -14.017127 -50.459355 80.074007 142.656306 -7.355805 -80.999725
2.2148999999999996 87.8049 29.030099999999997 -0.806254 -72.02817 6.944133 -3.704483 -7.156965 -180.0 1.463963 6.424295 170.406933 5.635415 36.200301 134.476417 -34.730072 24.552822 -164.44853 0.001096 0.0 0.003424 0.000613 -0.0 -0.004347 -156.826236 -13.166722 163.785689 -99.76491 -44.738011 -142.346523 -1.290759 34.619588 -102.216232 166.703875 -27.513752 141.895522 -0.655219 0.6468 0.104945 -1.208161 1.618157 1.433952 159.640018 -69.973076 102.394233 85.873623 -66.733207 29.83972 7.431365 -23.301233 -2.924979 -25.290974 49.194499 20.698494 -0.000439 0.022698 0.006633 8.447437 19.535203 2.742856 -14.104939 -26.510073 -13.434907 2.123417 -2.397143 -0.872871 142.586794 40.121391 -146.978282 -71.560712 -21.39379 -99.867636 -92.42323 41.373152 -75.221672 146.649573 62.18554 -122.993111 -4.655302 -4.638054 0.530957 133.564954 -31.227029 -118.795652 1.161684 1.861017 -0.668559 163.996201 -16.871342 -109.952098 160.824941 -7.141999 -143.316429 163.023832 -3.986416 -142.879523 145.098493 -1.6044 178.624715 23.41102 -71.737038 44.778427 146.225284 15.47028 142.7482 -46.390394 79.989211 10.135756 0.000314 -0.002163 -0.000404 1.028353 -32.302891 -170.871442 -11.860788 -43.65863 89.081977 150.781466 -61.362537 -98.228552 -0.000889 -0.001836 0.001144 -1.588683 -28.590751 -35.176324 -25.525361 53.113302 178.090472 -71.192048 -15.591911 173.011922
3.2718999999999996 87.3704 28.980099999999997 0.139193 -84.92252 5.80658 -3.490475 -3.587998 -62.809524 7.41145 -7.856263 55.487964 -14.432224 34.989216 -111.011921 30.063454 37.968966 73.416044 0.00152 0.0 0.004299 0.002007 0.0 0.000923 -155.417627 -2.951666 161.71776 42.692207 4.376429 -32.078896 96.557354 8.327407 -27.680022 -139.53826 66.73425 117.030451 -4.033697 3.93212 0.754366 -122.444065 -15.983932 109.126015 17.193707 -30.893706 -5.916326 -164.455475 -22.980334 110.68944 -36.034723 51.724058 29.830574 14.056611 -31.915356 -1.196231 -0.021755 -1.727555 -0.54429 -35.07487 75.97531 48.365577 -0.345735 -0.890086 -0.318042 1.650349 -2.336025 -0.717718 9.650412 34.836469 -11.198245 -78.167283 13.208684 -16.20349 3.574416 23.193023 -114.753666 6.252219 14.278042 0.341887 -88.928759 -50.830987 -37.599246 137.579867 17.968881 -100.466025 173.385092 -52.451448 -119.982783 163.735062 -26.631643 -118.155605 36.036095 51.723175 -29.832142 16.072233 40.126375 -13.032544 0.021395 -1.725867 0.543651 154.031518 -65.024547 178.242847 -9.9078 32.238548 -8.580256 160.338408 55.492044 149.759445 0.000898 -0.000532 0.000449 -0.116806 -30.109947 -0.0 15.127092 37.231737 23.974661 -34.089189 11.194744 -14.342076 0.0 0.001217 -0.00025 -1.492897 -29.561562 176.976138 4.849239 -50.31855 108.889077 126.914446 37.581387 -62.889675
4.6507 87.1454 29.0886 169.464179 -81.812249 -163.277611 -5.227187 -4.345219 -81.798882 9.058585 -5.323734 75.567199 -15.979154 32.301445 -100.352539 32.799193 35.088682 67.341799 0.003737 0.0 0.000154 -0.001797 -0.0 0.001008 3.54236 -62.052991 -13.039535 -149.435937 -18.212937 123.783472 -174.932633 6.647832 -106.984597 -8.103446 20.137573 0.248824 6.274262 -6.263714 -0.626285 21.376521 -43.334535 -20.356972 -162.919781 -37.929332 122.628822 -78.034315 57.178305 62.380574 89.035396 -81.392909 59.759549 9.722822 -20.378053 -1.33603 -145.099562 -1.521617 -178.649003 -125.972597 -69.886871 -147.940859 -135.067336 -13.384095 -132.470387 -9.547782 -24.128963 -12.416815 153.572807 7.49441 -159.312887 60.484608 -6.271057 -34.32064 -108.204164 -53.575037 129.196864 38.936182 62.744749 -22.050576 178.926978 -16.453894 -89.422159 77.829572 9.250598 -24.340387 150.885254 -16.291211 -120.979406 -176.05058 -50.83926 -111.371102 0.571717 1.648224 -0.322369 42.063073 58.559872 -36.102288 67.606431 -72.074623 84.373898 150.97496 -0.782245 -176.323517 124.850049 -29.038163 122.621475 136.855024 -12.877956 134.178301 -179.993338 75.750174 -0.006874 178.940027 43.298139 -178.454586 -16.553003 -40.648642 -154.230699 116.337739 -54.576367 13.229808 -0.00082 -0.000533 0.001054 -0.941539 -28.155618 176.260112 -3.0499 -49.944165 -124.09603 71.66552 -63.93596 -38.302805
